<svg width="687" height="450" viewBox="0 0 687 450" fill="none" xmlns="http://www.w3.org/2000/svg">
<path d="M234.394 148.188C209.416 144.043 186.393 140.353 172.068 147.515C115.268 175.915 167.631 295.726 87 331.122V449.041C330.88 456.228 214.889 363.305 467.853 400.99C541.117 411.904 541.279 275.395 531.216 183.404C529.396 166.766 532.182 154.282 533.763 144.052C502.32 188.001 450.272 224.895 398.884 230.166C351.976 234.977 304.385 186.204 234.394 148.188Z" fill="url(#paint0_linear_2_265)"/>
<path d="M550.5 105.5H351.672C336.453 165.135 282.651 156.201 235.457 148.365L234.394 148.188C304.385 186.204 351.976 234.977 398.884 230.166C450.272 224.895 502.32 188.001 533.763 144.052C536.525 126.174 543.382 115.884 550.5 105.5Z" fill="url(#paint1_linear_2_265)"/>
<path d="M87 105.5V331.122C167.631 295.726 115.268 175.915 172.068 147.515C186.393 140.353 209.416 144.043 234.394 148.188C194.078 126.29 146.33 107.962 87 105.5Z" fill="url(#paint2_linear_2_265)"/>
<path d="M351.672 105.5H87C146.33 107.962 194.078 126.29 234.394 148.188L235.457 148.365C282.651 156.201 336.453 165.135 351.672 105.5Z" fill="url(#paint3_linear_2_265)"/>
<g filter="url(#filter0_d_2_265)">
<path d="M285.258 304.737L295.219 201.612H330.199L339.984 304.737H320.473L319.008 288.096H306.586L305.297 304.737H285.258ZM308.051 271.631H317.426L312.914 219.19H311.977L308.051 271.631ZM370.57 305.674C364.32 305.674 359.34 304.502 355.629 302.159C351.918 299.815 349.262 296.436 347.66 292.022C346.059 287.608 345.258 282.295 345.258 276.084V240.752C345.258 232.588 347.602 226.417 352.289 222.237C356.977 218.018 363.422 215.909 371.625 215.909C388.5 215.909 396.938 224.19 396.938 240.752V247.139C396.938 254.874 396.859 260.069 396.703 262.725H366.234V279.717C366.234 281.28 366.332 282.823 366.527 284.346C366.723 285.831 367.152 287.061 367.816 288.038C368.52 289.014 369.633 289.502 371.156 289.502C373.344 289.502 374.711 288.565 375.258 286.69C375.805 284.776 376.078 282.295 376.078 279.249V270.811H396.938V275.792C396.938 282.354 396.117 287.862 394.477 292.315C392.875 296.729 390.141 300.069 386.273 302.334C382.445 304.561 377.211 305.674 370.57 305.674ZM366.117 252.295H376.078V240.459C376.078 237.295 375.688 235.03 374.906 233.663C374.125 232.256 372.953 231.553 371.391 231.553C369.711 231.553 368.402 232.217 367.465 233.545C366.566 234.874 366.117 237.178 366.117 240.459V252.295ZM404.555 304.737V216.846H425.883V226.631C426.898 223.233 428.695 220.577 431.273 218.663C433.852 216.749 437.094 215.792 441 215.792V233.311C439.281 233.311 437.23 233.506 434.848 233.897C432.465 234.249 430.375 234.756 428.578 235.42C426.781 236.045 425.883 236.749 425.883 237.53V304.737H404.555ZM471.703 305.674C454.203 305.674 445.453 296.592 445.453 278.428V243.155C445.453 234.874 447.777 228.272 452.426 223.35C457.074 218.389 463.5 215.909 471.703 215.909C479.945 215.909 486.391 218.389 491.039 223.35C495.688 228.272 498.012 234.874 498.012 243.155V278.428C498.012 296.592 489.242 305.674 471.703 305.674ZM471.703 289.502C473.461 289.502 474.711 288.877 475.453 287.627C476.234 286.338 476.625 284.717 476.625 282.764V239.815C476.625 234.698 474.984 232.139 471.703 232.139C468.422 232.139 466.781 234.698 466.781 239.815V282.764C466.781 284.717 467.152 286.338 467.895 287.627C468.676 288.877 469.945 289.502 471.703 289.502ZM506.156 304.737V201.612H534.105C541.605 201.612 547.055 203.448 550.453 207.12C553.891 210.752 555.609 216.768 555.609 225.167V229.678C555.609 234.522 554.73 238.448 552.973 241.456C551.254 244.463 548.617 246.436 545.062 247.374C549.711 248.545 552.816 251.299 554.379 255.635C555.98 259.932 556.781 265.186 556.781 271.397C556.781 278.077 556.156 283.917 554.906 288.917C553.656 293.917 551.391 297.803 548.109 300.577C544.828 303.35 540.16 304.737 534.105 304.737H506.156ZM526.312 240.459H530.531C532.445 240.459 533.676 239.717 534.223 238.233C534.77 236.749 535.043 234.971 535.043 232.901V222.53C535.043 219.209 533.578 217.549 530.648 217.549H526.312V240.459ZM528.363 286.573C533.715 286.573 536.391 284.034 536.391 278.956V266.065C536.391 263.135 535.941 260.831 535.043 259.151C534.184 257.432 532.543 256.573 530.121 256.573H526.312V286.456C527.172 286.534 527.855 286.573 528.363 286.573ZM579.223 305.674C574.34 305.674 570.609 304.542 568.031 302.276C565.492 300.01 563.754 296.905 562.816 292.959C561.879 289.014 561.41 284.542 561.41 279.542C561.41 274.19 561.938 269.815 562.992 266.417C564.047 262.979 565.844 260.167 568.383 257.979C570.961 255.792 574.496 253.936 578.988 252.413L591.996 247.959V238.936C591.996 234.209 590.453 231.846 587.367 231.846C584.555 231.846 583.148 233.76 583.148 237.588V242.862H562.758C562.719 242.549 562.699 242.159 562.699 241.69C562.699 241.182 562.699 240.616 562.699 239.991C562.699 231.241 564.75 225.049 568.852 221.417C572.992 217.745 579.535 215.909 588.48 215.909C593.168 215.909 597.367 216.749 601.078 218.428C604.789 220.069 607.719 222.51 609.867 225.752C612.055 228.995 613.148 232.999 613.148 237.764V304.737H592.289V294.307C591.273 297.979 589.594 300.792 587.25 302.745C584.906 304.698 582.23 305.674 579.223 305.674ZM587.484 289.385C589.203 289.385 590.375 288.663 591 287.217C591.625 285.772 591.938 284.209 591.938 282.53V258.038C589.047 259.209 586.801 260.694 585.199 262.491C583.598 264.249 582.797 266.846 582.797 270.284V281.592C582.797 286.788 584.359 289.385 587.484 289.385ZM619.535 319.385V306.084H629.613C631.137 306.084 631.898 305.557 631.898 304.502C631.898 303.956 631.84 303.389 631.723 302.803L617.953 216.846H638.051L643.91 281.534L650.824 216.846H671.039L654.75 309.307C654.164 312.627 653.031 315.127 651.352 316.807C649.711 318.526 646.996 319.385 643.207 319.385H619.535Z" fill="#6858A1"/>
<path d="M365.842 326.242L363.014 336H361.586L359.318 328.146L356.966 336L355.552 336.014L352.822 326.242H354.18L356.308 334.516L358.66 326.242H360.088L362.328 334.488L364.47 326.242H365.842ZM374.236 331.87C374.236 332.113 374.222 332.369 374.194 332.64H368.062C368.109 333.396 368.366 333.989 368.832 334.418C369.308 334.838 369.882 335.048 370.554 335.048C371.105 335.048 371.562 334.922 371.926 334.67C372.3 334.409 372.561 334.063 372.71 333.634H374.082C373.877 334.371 373.466 334.973 372.85 335.44C372.234 335.897 371.469 336.126 370.554 336.126C369.826 336.126 369.173 335.963 368.594 335.636C368.025 335.309 367.577 334.847 367.25 334.25C366.924 333.643 366.76 332.943 366.76 332.15C366.76 331.357 366.919 330.661 367.236 330.064C367.554 329.467 367.997 329.009 368.566 328.692C369.145 328.365 369.808 328.202 370.554 328.202C371.282 328.202 371.926 328.361 372.486 328.678C373.046 328.995 373.476 329.434 373.774 329.994C374.082 330.545 374.236 331.17 374.236 331.87ZM372.92 331.604C372.92 331.119 372.813 330.703 372.598 330.358C372.384 330.003 372.09 329.737 371.716 329.56C371.352 329.373 370.946 329.28 370.498 329.28C369.854 329.28 369.304 329.485 368.846 329.896C368.398 330.307 368.142 330.876 368.076 331.604H372.92ZM379.174 332.136C379.174 331.352 379.333 330.666 379.65 330.078C379.968 329.481 380.402 329.019 380.952 328.692C381.512 328.365 382.133 328.202 382.814 328.202C383.486 328.202 384.07 328.347 384.564 328.636C385.059 328.925 385.428 329.289 385.67 329.728V328.328H386.958V336H385.67V334.572C385.418 335.02 385.04 335.393 384.536 335.692C384.042 335.981 383.463 336.126 382.8 336.126C382.119 336.126 381.503 335.958 380.952 335.622C380.402 335.286 379.968 334.815 379.65 334.208C379.333 333.601 379.174 332.911 379.174 332.136ZM385.67 332.15C385.67 331.571 385.554 331.067 385.32 330.638C385.087 330.209 384.77 329.882 384.368 329.658C383.976 329.425 383.542 329.308 383.066 329.308C382.59 329.308 382.156 329.42 381.764 329.644C381.372 329.868 381.06 330.195 380.826 330.624C380.593 331.053 380.476 331.557 380.476 332.136C380.476 332.724 380.593 333.237 380.826 333.676C381.06 334.105 381.372 334.437 381.764 334.67C382.156 334.894 382.59 335.006 383.066 335.006C383.542 335.006 383.976 334.894 384.368 334.67C384.77 334.437 385.087 334.105 385.32 333.676C385.554 333.237 385.67 332.729 385.67 332.15ZM390.385 329.574C390.609 329.135 390.927 328.795 391.337 328.552C391.757 328.309 392.266 328.188 392.863 328.188V329.504H392.527C391.099 329.504 390.385 330.279 390.385 331.828V336H389.111V328.328H390.385V329.574ZM401.334 331.87C401.334 332.113 401.32 332.369 401.292 332.64H395.16C395.207 333.396 395.463 333.989 395.93 334.418C396.406 334.838 396.98 335.048 397.652 335.048C398.203 335.048 398.66 334.922 399.024 334.67C399.397 334.409 399.659 334.063 399.808 333.634H401.18C400.975 334.371 400.564 334.973 399.948 335.44C399.332 335.897 398.567 336.126 397.652 336.126C396.924 336.126 396.271 335.963 395.692 335.636C395.123 335.309 394.675 334.847 394.348 334.25C394.021 333.643 393.858 332.943 393.858 332.15C393.858 331.357 394.017 330.661 394.334 330.064C394.651 329.467 395.095 329.009 395.664 328.692C396.243 328.365 396.905 328.202 397.652 328.202C398.38 328.202 399.024 328.361 399.584 328.678C400.144 328.995 400.573 329.434 400.872 329.994C401.18 330.545 401.334 331.17 401.334 331.87ZM400.018 331.604C400.018 331.119 399.911 330.703 399.696 330.358C399.481 330.003 399.187 329.737 398.814 329.56C398.45 329.373 398.044 329.28 397.596 329.28C396.952 329.28 396.401 329.485 395.944 329.896C395.496 330.307 395.239 330.876 395.174 331.604H400.018ZM409.912 328.202C410.575 328.202 411.153 328.347 411.648 328.636C412.152 328.925 412.525 329.289 412.768 329.728V328.328H414.056V336.168C414.056 336.868 413.907 337.489 413.608 338.03C413.309 338.581 412.88 339.01 412.32 339.318C411.769 339.626 411.125 339.78 410.388 339.78C409.38 339.78 408.54 339.542 407.868 339.066C407.196 338.59 406.799 337.941 406.678 337.12H407.938C408.078 337.587 408.367 337.96 408.806 338.24C409.245 338.529 409.772 338.674 410.388 338.674C411.088 338.674 411.657 338.455 412.096 338.016C412.544 337.577 412.768 336.961 412.768 336.168V334.558C412.516 335.006 412.143 335.379 411.648 335.678C411.153 335.977 410.575 336.126 409.912 336.126C409.231 336.126 408.61 335.958 408.05 335.622C407.499 335.286 407.065 334.815 406.748 334.208C406.431 333.601 406.272 332.911 406.272 332.136C406.272 331.352 406.431 330.666 406.748 330.078C407.065 329.481 407.499 329.019 408.05 328.692C408.61 328.365 409.231 328.202 409.912 328.202ZM412.768 332.15C412.768 331.571 412.651 331.067 412.418 330.638C412.185 330.209 411.867 329.882 411.466 329.658C411.074 329.425 410.64 329.308 410.164 329.308C409.688 329.308 409.254 329.42 408.862 329.644C408.47 329.868 408.157 330.195 407.924 330.624C407.691 331.053 407.574 331.557 407.574 332.136C407.574 332.724 407.691 333.237 407.924 333.676C408.157 334.105 408.47 334.437 408.862 334.67C409.254 334.894 409.688 335.006 410.164 335.006C410.64 335.006 411.074 334.894 411.466 334.67C411.867 334.437 412.185 334.105 412.418 333.676C412.651 333.237 412.768 332.729 412.768 332.15ZM417.483 325.64V336H416.209V325.64H417.483ZM419.178 332.136C419.178 331.352 419.337 330.666 419.654 330.078C419.972 329.481 420.406 329.019 420.956 328.692C421.516 328.365 422.137 328.202 422.818 328.202C423.49 328.202 424.074 328.347 424.568 328.636C425.063 328.925 425.432 329.289 425.674 329.728V328.328H426.962V336H425.674V334.572C425.422 335.02 425.044 335.393 424.54 335.692C424.046 335.981 423.467 336.126 422.804 336.126C422.123 336.126 421.507 335.958 420.956 335.622C420.406 335.286 419.972 334.815 419.654 334.208C419.337 333.601 419.178 332.911 419.178 332.136ZM425.674 332.15C425.674 331.571 425.558 331.067 425.324 330.638C425.091 330.209 424.774 329.882 424.372 329.658C423.98 329.425 423.546 329.308 423.07 329.308C422.594 329.308 422.16 329.42 421.768 329.644C421.376 329.868 421.064 330.195 420.83 330.624C420.597 331.053 420.48 331.557 420.48 332.136C420.48 332.724 420.597 333.237 420.83 333.676C421.064 334.105 421.376 334.437 421.768 334.67C422.16 334.894 422.594 335.006 423.07 335.006C423.546 335.006 423.98 334.894 424.372 334.67C424.774 334.437 425.091 334.105 425.324 333.676C425.558 333.237 425.674 332.729 425.674 332.15ZM428.639 332.136C428.639 331.352 428.798 330.666 429.115 330.078C429.432 329.481 429.866 329.019 430.417 328.692C430.977 328.365 431.602 328.202 432.293 328.202C432.89 328.202 433.446 328.342 433.959 328.622C434.472 328.893 434.864 329.252 435.135 329.7V325.64H436.423V336H435.135V334.558C434.883 335.015 434.51 335.393 434.015 335.692C433.52 335.981 432.942 336.126 432.279 336.126C431.598 336.126 430.977 335.958 430.417 335.622C429.866 335.286 429.432 334.815 429.115 334.208C428.798 333.601 428.639 332.911 428.639 332.136ZM435.135 332.15C435.135 331.571 435.018 331.067 434.785 330.638C434.552 330.209 434.234 329.882 433.833 329.658C433.441 329.425 433.007 329.308 432.531 329.308C432.055 329.308 431.621 329.42 431.229 329.644C430.837 329.868 430.524 330.195 430.291 330.624C430.058 331.053 429.941 331.557 429.941 332.136C429.941 332.724 430.058 333.237 430.291 333.676C430.524 334.105 430.837 334.437 431.229 334.67C431.621 334.894 432.055 335.006 432.531 335.006C433.007 335.006 433.441 334.894 433.833 334.67C434.234 334.437 434.552 334.105 434.785 333.676C435.018 333.237 435.135 332.729 435.135 332.15ZM443.862 329.378V333.9C443.862 334.273 443.942 334.539 444.1 334.698C444.259 334.847 444.534 334.922 444.926 334.922H445.864V336H444.716C444.007 336 443.475 335.837 443.12 335.51C442.766 335.183 442.588 334.647 442.588 333.9V329.378H441.594V328.328H442.588V326.396H443.862V328.328H445.864V329.378H443.862ZM450.754 336.126C450.035 336.126 449.382 335.963 448.794 335.636C448.215 335.309 447.758 334.847 447.422 334.25C447.095 333.643 446.932 332.943 446.932 332.15C446.932 331.366 447.1 330.675 447.436 330.078C447.781 329.471 448.248 329.009 448.836 328.692C449.424 328.365 450.082 328.202 450.81 328.202C451.538 328.202 452.196 328.365 452.784 328.692C453.372 329.009 453.834 329.467 454.17 330.064C454.515 330.661 454.688 331.357 454.688 332.15C454.688 332.943 454.511 333.643 454.156 334.25C453.811 334.847 453.339 335.309 452.742 335.636C452.145 335.963 451.482 336.126 450.754 336.126ZM450.754 335.006C451.211 335.006 451.641 334.899 452.042 334.684C452.443 334.469 452.765 334.147 453.008 333.718C453.26 333.289 453.386 332.766 453.386 332.15C453.386 331.534 453.265 331.011 453.022 330.582C452.779 330.153 452.462 329.835 452.07 329.63C451.678 329.415 451.253 329.308 450.796 329.308C450.329 329.308 449.9 329.415 449.508 329.63C449.125 329.835 448.817 330.153 448.584 330.582C448.351 331.011 448.234 331.534 448.234 332.15C448.234 332.775 448.346 333.303 448.57 333.732C448.803 334.161 449.111 334.483 449.494 334.698C449.877 334.903 450.297 335.006 450.754 335.006ZM462.812 336.126C462.224 336.126 461.696 336.028 461.23 335.832C460.763 335.627 460.394 335.347 460.124 334.992C459.853 334.628 459.704 334.213 459.676 333.746H460.992C461.029 334.129 461.206 334.441 461.524 334.684C461.85 334.927 462.275 335.048 462.798 335.048C463.283 335.048 463.666 334.941 463.946 334.726C464.226 334.511 464.366 334.241 464.366 333.914C464.366 333.578 464.216 333.331 463.918 333.172C463.619 333.004 463.157 332.841 462.532 332.682C461.962 332.533 461.496 332.383 461.132 332.234C460.777 332.075 460.469 331.847 460.208 331.548C459.956 331.24 459.83 330.839 459.83 330.344C459.83 329.952 459.946 329.593 460.18 329.266C460.413 328.939 460.744 328.683 461.174 328.496C461.603 328.3 462.093 328.202 462.644 328.202C463.493 328.202 464.179 328.417 464.702 328.846C465.224 329.275 465.504 329.863 465.542 330.61H464.268C464.24 330.209 464.076 329.887 463.778 329.644C463.488 329.401 463.096 329.28 462.602 329.28C462.144 329.28 461.78 329.378 461.51 329.574C461.239 329.77 461.104 330.027 461.104 330.344C461.104 330.596 461.183 330.806 461.342 330.974C461.51 331.133 461.715 331.263 461.958 331.366C462.21 331.459 462.555 331.567 462.994 331.688C463.544 331.837 463.992 331.987 464.338 332.136C464.683 332.276 464.977 332.491 465.22 332.78C465.472 333.069 465.602 333.447 465.612 333.914C465.612 334.334 465.495 334.712 465.262 335.048C465.028 335.384 464.697 335.65 464.268 335.846C463.848 336.033 463.362 336.126 462.812 336.126ZM474.41 331.87C474.41 332.113 474.396 332.369 474.368 332.64H468.236C468.283 333.396 468.539 333.989 469.006 334.418C469.482 334.838 470.056 335.048 470.728 335.048C471.279 335.048 471.736 334.922 472.1 334.67C472.473 334.409 472.735 334.063 472.884 333.634H474.256C474.051 334.371 473.64 334.973 473.024 335.44C472.408 335.897 471.643 336.126 470.728 336.126C470 336.126 469.347 335.963 468.768 335.636C468.199 335.309 467.751 334.847 467.424 334.25C467.097 333.643 466.934 332.943 466.934 332.15C466.934 331.357 467.093 330.661 467.41 330.064C467.727 329.467 468.171 329.009 468.74 328.692C469.319 328.365 469.981 328.202 470.728 328.202C471.456 328.202 472.1 328.361 472.66 328.678C473.22 328.995 473.649 329.434 473.948 329.994C474.256 330.545 474.41 331.17 474.41 331.87ZM473.094 331.604C473.094 331.119 472.987 330.703 472.772 330.358C472.557 330.003 472.263 329.737 471.89 329.56C471.526 329.373 471.12 329.28 470.672 329.28C470.028 329.28 469.477 329.485 469.02 329.896C468.572 330.307 468.315 330.876 468.25 331.604H473.094ZM483.092 331.87C483.092 332.113 483.078 332.369 483.05 332.64H476.918C476.964 333.396 477.221 333.989 477.688 334.418C478.164 334.838 478.738 335.048 479.41 335.048C479.96 335.048 480.418 334.922 480.782 334.67C481.155 334.409 481.416 334.063 481.566 333.634H482.938C482.732 334.371 482.322 334.973 481.706 335.44C481.09 335.897 480.324 336.126 479.41 336.126C478.682 336.126 478.028 335.963 477.45 335.636C476.88 335.309 476.432 334.847 476.106 334.25C475.779 333.643 475.616 332.943 475.616 332.15C475.616 331.357 475.774 330.661 476.092 330.064C476.409 329.467 476.852 329.009 477.422 328.692C478 328.365 478.663 328.202 479.41 328.202C480.138 328.202 480.782 328.361 481.342 328.678C481.902 328.995 482.331 329.434 482.63 329.994C482.938 330.545 483.092 331.17 483.092 331.87ZM481.776 331.604C481.776 331.119 481.668 330.703 481.454 330.358C481.239 330.003 480.945 329.737 480.572 329.56C480.208 329.373 479.802 329.28 479.354 329.28C478.71 329.28 478.159 329.485 477.702 329.896C477.254 330.307 476.997 330.876 476.932 331.604H481.776ZM495.114 328.328L490.494 339.612H489.178L490.69 335.916L487.596 328.328H489.01L491.418 334.544L493.798 328.328H495.114ZM499.74 336.126C499.022 336.126 498.368 335.963 497.78 335.636C497.202 335.309 496.744 334.847 496.408 334.25C496.082 333.643 495.918 332.943 495.918 332.15C495.918 331.366 496.086 330.675 496.422 330.078C496.768 329.471 497.234 329.009 497.822 328.692C498.41 328.365 499.068 328.202 499.796 328.202C500.524 328.202 501.182 328.365 501.77 328.692C502.358 329.009 502.82 329.467 503.156 330.064C503.502 330.661 503.674 331.357 503.674 332.15C503.674 332.943 503.497 333.643 503.142 334.25C502.797 334.847 502.326 335.309 501.728 335.636C501.131 335.963 500.468 336.126 499.74 336.126ZM499.74 335.006C500.198 335.006 500.627 334.899 501.028 334.684C501.43 334.469 501.752 334.147 501.994 333.718C502.246 333.289 502.372 332.766 502.372 332.15C502.372 331.534 502.251 331.011 502.008 330.582C501.766 330.153 501.448 329.835 501.056 329.63C500.664 329.415 500.24 329.308 499.782 329.308C499.316 329.308 498.886 329.415 498.494 329.63C498.112 329.835 497.804 330.153 497.57 330.582C497.337 331.011 497.22 331.534 497.22 332.15C497.22 332.775 497.332 333.303 497.556 333.732C497.79 334.161 498.098 334.483 498.48 334.698C498.863 334.903 499.283 335.006 499.74 335.006ZM512.153 328.328V336H510.879V334.866C510.637 335.258 510.296 335.566 509.857 335.79C509.428 336.005 508.952 336.112 508.429 336.112C507.832 336.112 507.295 335.991 506.819 335.748C506.343 335.496 505.965 335.123 505.685 334.628C505.415 334.133 505.279 333.531 505.279 332.822V328.328H506.539V332.654C506.539 333.41 506.731 333.993 507.113 334.404C507.496 334.805 508.019 335.006 508.681 335.006C509.363 335.006 509.899 334.796 510.291 334.376C510.683 333.956 510.879 333.345 510.879 332.542V328.328H512.153ZM519.311 329.756C519.572 329.299 519.955 328.925 520.459 328.636C520.963 328.347 521.537 328.202 522.181 328.202C522.872 328.202 523.492 328.365 524.043 328.692C524.594 329.019 525.028 329.481 525.345 330.078C525.662 330.666 525.821 331.352 525.821 332.136C525.821 332.911 525.662 333.601 525.345 334.208C525.028 334.815 524.589 335.286 524.029 335.622C523.478 335.958 522.862 336.126 522.181 336.126C521.518 336.126 520.935 335.981 520.431 335.692C519.936 335.403 519.563 335.034 519.311 334.586V336H518.037V325.64H519.311V329.756ZM524.519 332.136C524.519 331.557 524.402 331.053 524.169 330.624C523.936 330.195 523.618 329.868 523.217 329.644C522.825 329.42 522.391 329.308 521.915 329.308C521.448 329.308 521.014 329.425 520.613 329.658C520.221 329.882 519.904 330.213 519.661 330.652C519.428 331.081 519.311 331.581 519.311 332.15C519.311 332.729 519.428 333.237 519.661 333.676C519.904 334.105 520.221 334.437 520.613 334.67C521.014 334.894 521.448 335.006 521.915 335.006C522.391 335.006 522.825 334.894 523.217 334.67C523.618 334.437 523.936 334.105 524.169 333.676C524.402 333.237 524.519 332.724 524.519 332.136ZM527.022 332.136C527.022 331.352 527.181 330.666 527.498 330.078C527.815 329.481 528.249 329.019 528.8 328.692C529.36 328.365 529.981 328.202 530.662 328.202C531.334 328.202 531.917 328.347 532.412 328.636C532.907 328.925 533.275 329.289 533.518 329.728V328.328H534.806V336H533.518V334.572C533.266 335.02 532.888 335.393 532.384 335.692C531.889 335.981 531.311 336.126 530.648 336.126C529.967 336.126 529.351 335.958 528.8 335.622C528.249 335.286 527.815 334.815 527.498 334.208C527.181 333.601 527.022 332.911 527.022 332.136ZM533.518 332.15C533.518 331.571 533.401 331.067 533.168 330.638C532.935 330.209 532.617 329.882 532.216 329.658C531.824 329.425 531.39 329.308 530.914 329.308C530.438 329.308 530.004 329.42 529.612 329.644C529.22 329.868 528.907 330.195 528.674 330.624C528.441 331.053 528.324 331.557 528.324 332.136C528.324 332.724 528.441 333.237 528.674 333.676C528.907 334.105 529.22 334.437 529.612 334.67C530.004 334.894 530.438 335.006 530.914 335.006C531.39 335.006 531.824 334.894 532.216 334.67C532.617 334.437 532.935 334.105 533.168 333.676C533.401 333.237 533.518 332.729 533.518 332.15ZM536.483 332.15C536.483 331.357 536.642 330.666 536.959 330.078C537.276 329.481 537.715 329.019 538.275 328.692C538.844 328.365 539.493 328.202 540.221 328.202C541.164 328.202 541.938 328.431 542.545 328.888C543.161 329.345 543.567 329.98 543.763 330.792H542.391C542.26 330.325 542.004 329.957 541.621 329.686C541.248 329.415 540.781 329.28 540.221 329.28C539.493 329.28 538.905 329.532 538.457 330.036C538.009 330.531 537.785 331.235 537.785 332.15C537.785 333.074 538.009 333.788 538.457 334.292C538.905 334.796 539.493 335.048 540.221 335.048C540.781 335.048 541.248 334.917 541.621 334.656C541.994 334.395 542.251 334.021 542.391 333.536H543.763C543.558 334.32 543.147 334.95 542.531 335.426C541.915 335.893 541.145 336.126 540.221 336.126C539.493 336.126 538.844 335.963 538.275 335.636C537.715 335.309 537.276 334.847 536.959 334.25C536.642 333.653 536.483 332.953 536.483 332.15ZM549.747 336L546.737 332.612V336H545.463V325.64H546.737V331.73L549.691 328.328H551.469L547.857 332.15L551.483 336H549.747ZM566.62 328.328L564.226 336H562.91L561.062 329.91L559.214 336H557.898L555.49 328.328H556.792L558.556 334.768L560.46 328.328H561.762L563.624 334.782L565.36 328.328H566.62ZM568.543 327.082C568.3 327.082 568.095 326.998 567.927 326.83C567.759 326.662 567.675 326.457 567.675 326.214C567.675 325.971 567.759 325.766 567.927 325.598C568.095 325.43 568.3 325.346 568.543 325.346C568.776 325.346 568.972 325.43 569.131 325.598C569.299 325.766 569.383 325.971 569.383 326.214C569.383 326.457 569.299 326.662 569.131 326.83C568.972 326.998 568.776 327.082 568.543 327.082ZM569.159 328.328V336H567.885V328.328H569.159ZM572.884 329.378V333.9C572.884 334.273 572.963 334.539 573.122 334.698C573.281 334.847 573.556 334.922 573.948 334.922H574.886V336H573.738C573.029 336 572.497 335.837 572.142 335.51C571.787 335.183 571.61 334.647 571.61 333.9V329.378H570.616V328.328H571.61V326.396H572.884V328.328H574.886V329.378H572.884ZM580.238 328.188C580.816 328.188 581.339 328.314 581.806 328.566C582.272 328.809 582.636 329.177 582.898 329.672C583.168 330.167 583.304 330.769 583.304 331.478V336H582.044V331.66C582.044 330.895 581.852 330.311 581.47 329.91C581.087 329.499 580.564 329.294 579.902 329.294C579.23 329.294 578.693 329.504 578.292 329.924C577.9 330.344 577.704 330.955 577.704 331.758V336H576.43V325.64H577.704V329.42C577.956 329.028 578.301 328.725 578.74 328.51C579.188 328.295 579.687 328.188 580.238 328.188ZM595.921 328.328V336H594.647V334.866C594.404 335.258 594.064 335.566 593.625 335.79C593.196 336.005 592.72 336.112 592.197 336.112C591.6 336.112 591.063 335.991 590.587 335.748C590.111 335.496 589.733 335.123 589.453 334.628C589.182 334.133 589.047 333.531 589.047 332.822V328.328H590.307V332.654C590.307 333.41 590.498 333.993 590.881 334.404C591.264 334.805 591.786 335.006 592.449 335.006C593.13 335.006 593.667 334.796 594.059 334.376C594.451 333.956 594.647 333.345 594.647 332.542V328.328H595.921ZM600.788 336.126C600.2 336.126 599.673 336.028 599.206 335.832C598.739 335.627 598.371 335.347 598.1 334.992C597.829 334.628 597.68 334.213 597.652 333.746H598.968C599.005 334.129 599.183 334.441 599.5 334.684C599.827 334.927 600.251 335.048 600.774 335.048C601.259 335.048 601.642 334.941 601.922 334.726C602.202 334.511 602.342 334.241 602.342 333.914C602.342 333.578 602.193 333.331 601.894 333.172C601.595 333.004 601.133 332.841 600.508 332.682C599.939 332.533 599.472 332.383 599.108 332.234C598.753 332.075 598.445 331.847 598.184 331.548C597.932 331.24 597.806 330.839 597.806 330.344C597.806 329.952 597.923 329.593 598.156 329.266C598.389 328.939 598.721 328.683 599.15 328.496C599.579 328.3 600.069 328.202 600.62 328.202C601.469 328.202 602.155 328.417 602.678 328.846C603.201 329.275 603.481 329.863 603.518 330.61H602.244C602.216 330.209 602.053 329.887 601.754 329.644C601.465 329.401 601.073 329.28 600.578 329.28C600.121 329.28 599.757 329.378 599.486 329.574C599.215 329.77 599.08 330.027 599.08 330.344C599.08 330.596 599.159 330.806 599.318 330.974C599.486 331.133 599.691 331.263 599.934 331.366C600.186 331.459 600.531 331.567 600.97 331.688C601.521 331.837 601.969 331.987 602.314 332.136C602.659 332.276 602.953 332.491 603.196 332.78C603.448 333.069 603.579 333.447 603.588 333.914C603.588 334.334 603.471 334.712 603.238 335.048C603.005 335.384 602.673 335.65 602.244 335.846C601.824 336.033 601.339 336.126 600.788 336.126Z" fill="#6858A1"/>
</g>
<g filter="url(#filter1_d_2_265)">
<path d="M506.163 201.612V304.737H534.266L535.405 286.456C534.739 286.563 534.299 286.573 533.519 286.573C533.012 286.573 532.328 286.534 531.469 286.456L526.469 286.229V256.67L531.469 256.573H535.277C535.457 256.573 535.633 256.577 535.805 256.587L535.454 240.459H531.469L526.469 240.376V217.549C530.224 217.549 533.107 216.963 534.395 219.408L533.05 201.612H506.163Z" fill="white"/>
<path d="M285.258 304.737L295.219 201.612H330.199L339.984 304.737H320.473L319.008 288.096H306.586L305.297 304.737H285.258ZM308.051 271.631H317.426L312.914 219.19H311.977L308.051 271.631Z" fill="white"/>
<path d="M370.57 305.674C364.32 305.674 359.34 304.502 355.629 302.159C351.918 299.815 349.262 296.436 347.66 292.022C346.059 287.608 345.258 282.295 345.258 276.084V240.752C345.258 232.588 347.602 226.416 352.289 222.237C356.977 218.018 363.422 215.909 371.625 215.909C388.5 215.909 396.938 224.19 396.938 240.752V247.139C396.938 254.873 396.859 260.069 396.703 262.725H366.234V279.717C366.234 281.28 366.332 282.823 366.527 284.346C366.723 285.83 367.152 287.061 367.816 288.037C368.52 289.014 369.633 289.502 371.156 289.502C373.344 289.502 374.711 288.565 375.258 286.69C375.805 284.776 376.078 282.295 376.078 279.248V270.811H396.938V275.791C396.938 282.354 396.117 287.862 394.477 292.315C392.875 296.729 390.141 300.069 386.273 302.334C382.445 304.561 377.211 305.674 370.57 305.674ZM366.117 252.295H376.078V240.459C376.078 237.295 375.688 235.03 374.906 233.662C374.125 232.256 372.953 231.553 371.391 231.553C369.711 231.553 368.402 232.217 367.465 233.545C366.566 234.873 366.117 237.178 366.117 240.459V252.295Z" fill="white"/>
<path d="M404.555 304.737V216.846H425.883V226.631C426.898 223.233 428.695 220.577 431.273 218.662C433.852 216.748 437.094 215.791 441 215.791V233.311C439.281 233.311 437.23 233.506 434.848 233.897C432.465 234.248 430.375 234.756 428.578 235.42C426.781 236.045 425.883 236.748 425.883 237.53V304.737H404.555Z" fill="white"/>
<path d="M471.703 305.674C454.203 305.674 445.453 296.592 445.453 278.428V243.155C445.453 234.873 447.777 228.272 452.426 223.35C457.074 218.389 463.5 215.909 471.703 215.909C479.945 215.909 486.391 218.389 491.039 223.35C495.688 228.272 498.012 234.873 498.012 243.155V278.428C498.012 296.592 489.242 305.674 471.703 305.674ZM471.703 289.502C473.461 289.502 474.711 288.877 475.453 287.627C476.234 286.338 476.625 284.717 476.625 282.764V239.815C476.625 234.698 474.984 232.139 471.703 232.139C468.422 232.139 466.781 234.698 466.781 239.815V282.764C466.781 284.717 467.152 286.338 467.895 287.627C468.676 288.877 469.945 289.502 471.703 289.502Z" fill="white"/>
<path d="M531.469 286.456C532.328 286.534 533.012 286.573 533.519 286.573C534.299 286.573 534.739 286.563 535.405 286.456L535.448 283.264C533.814 286.334 529.625 287.001 526.469 286.229L531.469 286.456Z" fill="white"/>
<path d="M535.277 256.573H531.469L526.469 256.67C531.469 256.573 533.92 255.811 535.747 260.894L535.805 256.587C535.633 256.577 535.457 256.573 535.277 256.573Z" fill="white"/>
<path d="M531.469 240.459H535.454L535.074 232.901C534.697 239.695 533.329 241.285 526.469 240.376L531.469 240.459Z" fill="white"/>
<path d="M365.842 326.242L363.014 336H361.586L359.318 328.146L356.966 336L355.552 336.014L352.822 326.242H354.18L356.308 334.516L358.66 326.242H360.088L362.328 334.488L364.47 326.242H365.842Z" fill="white"/>
<path d="M374.236 331.87C374.236 332.113 374.222 332.369 374.194 332.64H368.062C368.109 333.396 368.365 333.989 368.832 334.418C369.308 334.838 369.882 335.048 370.554 335.048C371.105 335.048 371.562 334.922 371.926 334.67C372.299 334.409 372.561 334.063 372.71 333.634H374.082C373.877 334.371 373.466 334.973 372.85 335.44C372.234 335.897 371.469 336.126 370.554 336.126C369.826 336.126 369.173 335.963 368.594 335.636C368.025 335.309 367.577 334.847 367.25 334.25C366.923 333.643 366.76 332.943 366.76 332.15C366.76 331.357 366.919 330.661 367.236 330.064C367.553 329.467 367.997 329.009 368.566 328.692C369.145 328.365 369.807 328.202 370.554 328.202C371.282 328.202 371.926 328.361 372.486 328.678C373.046 328.995 373.475 329.434 373.774 329.994C374.082 330.545 374.236 331.17 374.236 331.87ZM372.92 331.604C372.92 331.119 372.813 330.703 372.598 330.358C372.383 330.003 372.089 329.737 371.716 329.56C371.352 329.373 370.946 329.28 370.498 329.28C369.854 329.28 369.303 329.485 368.846 329.896C368.398 330.307 368.141 330.876 368.076 331.604H372.92Z" fill="white"/>
<path d="M379.174 332.136C379.174 331.352 379.333 330.666 379.65 330.078C379.967 329.481 380.401 329.019 380.952 328.692C381.512 328.365 382.133 328.202 382.814 328.202C383.486 328.202 384.069 328.347 384.564 328.636C385.059 328.925 385.427 329.289 385.67 329.728V328.328H386.958V336H385.67V334.572C385.418 335.02 385.04 335.393 384.536 335.692C384.041 335.981 383.463 336.126 382.8 336.126C382.119 336.126 381.503 335.958 380.952 335.622C380.401 335.286 379.967 334.815 379.65 334.208C379.333 333.601 379.174 332.911 379.174 332.136ZM385.67 332.15C385.67 331.571 385.553 331.067 385.32 330.638C385.087 330.209 384.769 329.882 384.368 329.658C383.976 329.425 383.542 329.308 383.066 329.308C382.59 329.308 382.156 329.42 381.764 329.644C381.372 329.868 381.059 330.195 380.826 330.624C380.593 331.053 380.476 331.557 380.476 332.136C380.476 332.724 380.593 333.237 380.826 333.676C381.059 334.105 381.372 334.437 381.764 334.67C382.156 334.894 382.59 335.006 383.066 335.006C383.542 335.006 383.976 334.894 384.368 334.67C384.769 334.437 385.087 334.105 385.32 333.676C385.553 333.237 385.67 332.729 385.67 332.15Z" fill="white"/>
<path d="M390.385 329.574C390.609 329.135 390.926 328.795 391.337 328.552C391.757 328.309 392.266 328.188 392.863 328.188V329.504H392.527C391.099 329.504 390.385 330.279 390.385 331.828V336H389.111V328.328H390.385V329.574Z" fill="white"/>
<path d="M401.334 331.87C401.334 332.113 401.32 332.369 401.292 332.64H395.16C395.206 333.396 395.463 333.989 395.93 334.418C396.406 334.838 396.98 335.048 397.652 335.048C398.202 335.048 398.66 334.922 399.024 334.67C399.397 334.409 399.658 334.063 399.808 333.634H401.18C400.974 334.371 400.564 334.973 399.948 335.44C399.332 335.897 398.566 336.126 397.652 336.126C396.924 336.126 396.27 335.963 395.692 335.636C395.122 335.309 394.674 334.847 394.348 334.25C394.021 333.643 393.858 332.943 393.858 332.15C393.858 331.357 394.016 330.661 394.334 330.064C394.651 329.467 395.094 329.009 395.664 328.692C396.242 328.365 396.905 328.202 397.652 328.202C398.38 328.202 399.024 328.361 399.584 328.678C400.144 328.995 400.573 329.434 400.872 329.994C401.18 330.545 401.334 331.17 401.334 331.87ZM400.018 331.604C400.018 331.119 399.91 330.703 399.696 330.358C399.481 330.003 399.187 329.737 398.814 329.56C398.45 329.373 398.044 329.28 397.596 329.28C396.952 329.28 396.401 329.485 395.944 329.896C395.496 330.307 395.239 330.876 395.174 331.604H400.018Z" fill="white"/>
<path d="M409.912 328.202C410.574 328.202 411.153 328.347 411.648 328.636C412.152 328.925 412.525 329.289 412.768 329.728V328.328H414.056V336.168C414.056 336.868 413.906 337.489 413.608 338.03C413.309 338.581 412.88 339.01 412.32 339.318C411.769 339.626 411.125 339.78 410.388 339.78C409.38 339.78 408.54 339.542 407.868 339.066C407.196 338.59 406.799 337.941 406.678 337.12H407.938C408.078 337.587 408.367 337.96 408.806 338.24C409.244 338.529 409.772 338.674 410.388 338.674C411.088 338.674 411.657 338.455 412.096 338.016C412.544 337.577 412.768 336.961 412.768 336.168V334.558C412.516 335.006 412.142 335.379 411.648 335.678C411.153 335.977 410.574 336.126 409.912 336.126C409.23 336.126 408.61 335.958 408.05 335.622C407.499 335.286 407.065 334.815 406.748 334.208C406.43 333.601 406.272 332.911 406.272 332.136C406.272 331.352 406.43 330.666 406.748 330.078C407.065 329.481 407.499 329.019 408.05 328.692C408.61 328.365 409.23 328.202 409.912 328.202ZM412.768 332.15C412.768 331.571 412.651 331.067 412.418 330.638C412.184 330.209 411.867 329.882 411.466 329.658C411.074 329.425 410.64 329.308 410.164 329.308C409.688 329.308 409.254 329.42 408.862 329.644C408.47 329.868 408.157 330.195 407.924 330.624C407.69 331.053 407.574 331.557 407.574 332.136C407.574 332.724 407.69 333.237 407.924 333.676C408.157 334.105 408.47 334.437 408.862 334.67C409.254 334.894 409.688 335.006 410.164 335.006C410.64 335.006 411.074 334.894 411.466 334.67C411.867 334.437 412.184 334.105 412.418 333.676C412.651 333.237 412.768 332.729 412.768 332.15Z" fill="white"/>
<path d="M417.483 325.64V336H416.209V325.64H417.483Z" fill="white"/>
<path d="M419.178 332.136C419.178 331.352 419.337 330.666 419.654 330.078C419.971 329.481 420.405 329.019 420.956 328.692C421.516 328.365 422.137 328.202 422.818 328.202C423.49 328.202 424.073 328.347 424.568 328.636C425.063 328.925 425.431 329.289 425.674 329.728V328.328H426.962V336H425.674V334.572C425.422 335.02 425.044 335.393 424.54 335.692C424.045 335.981 423.467 336.126 422.804 336.126C422.123 336.126 421.507 335.958 420.956 335.622C420.405 335.286 419.971 334.815 419.654 334.208C419.337 333.601 419.178 332.911 419.178 332.136ZM425.674 332.15C425.674 331.571 425.557 331.067 425.324 330.638C425.091 330.209 424.773 329.882 424.372 329.658C423.98 329.425 423.546 329.308 423.07 329.308C422.594 329.308 422.16 329.42 421.768 329.644C421.376 329.868 421.063 330.195 420.83 330.624C420.597 331.053 420.48 331.557 420.48 332.136C420.48 332.724 420.597 333.237 420.83 333.676C421.063 334.105 421.376 334.437 421.768 334.67C422.16 334.894 422.594 335.006 423.07 335.006C423.546 335.006 423.98 334.894 424.372 334.67C424.773 334.437 425.091 334.105 425.324 333.676C425.557 333.237 425.674 332.729 425.674 332.15Z" fill="white"/>
<path d="M428.639 332.136C428.639 331.352 428.798 330.666 429.115 330.078C429.432 329.481 429.866 329.019 430.417 328.692C430.977 328.365 431.602 328.202 432.293 328.202C432.89 328.202 433.446 328.342 433.959 328.622C434.472 328.893 434.864 329.252 435.135 329.7V325.64H436.423V336H435.135V334.558C434.883 335.015 434.51 335.393 434.015 335.692C433.52 335.981 432.942 336.126 432.279 336.126C431.598 336.126 430.977 335.958 430.417 335.622C429.866 335.286 429.432 334.815 429.115 334.208C428.798 333.601 428.639 332.911 428.639 332.136ZM435.135 332.15C435.135 331.571 435.018 331.067 434.785 330.638C434.552 330.209 434.234 329.882 433.833 329.658C433.441 329.425 433.007 329.308 432.531 329.308C432.055 329.308 431.621 329.42 431.229 329.644C430.837 329.868 430.524 330.195 430.291 330.624C430.058 331.053 429.941 331.557 429.941 332.136C429.941 332.724 430.058 333.237 430.291 333.676C430.524 334.105 430.837 334.437 431.229 334.67C431.621 334.894 432.055 335.006 432.531 335.006C433.007 335.006 433.441 334.894 433.833 334.67C434.234 334.437 434.552 334.105 434.785 333.676C435.018 333.237 435.135 332.729 435.135 332.15Z" fill="white"/>
<path d="M443.862 329.378V333.9C443.862 334.273 443.942 334.539 444.1 334.698C444.259 334.847 444.534 334.922 444.926 334.922H445.864V336H444.716C444.007 336 443.475 335.837 443.12 335.51C442.766 335.183 442.588 334.647 442.588 333.9V329.378H441.594V328.328H442.588V326.396H443.862V328.328H445.864V329.378H443.862Z" fill="white"/>
<path d="M450.754 336.126C450.035 336.126 449.382 335.963 448.794 335.636C448.215 335.309 447.758 334.847 447.422 334.25C447.095 333.643 446.932 332.943 446.932 332.15C446.932 331.366 447.1 330.675 447.436 330.078C447.781 329.471 448.248 329.009 448.836 328.692C449.424 328.365 450.082 328.202 450.81 328.202C451.538 328.202 452.196 328.365 452.784 328.692C453.372 329.009 453.834 329.467 454.17 330.064C454.515 330.661 454.688 331.357 454.688 332.15C454.688 332.943 454.511 333.643 454.156 334.25C453.811 334.847 453.339 335.309 452.742 335.636C452.145 335.963 451.482 336.126 450.754 336.126ZM450.754 335.006C451.211 335.006 451.641 334.899 452.042 334.684C452.443 334.469 452.765 334.147 453.008 333.718C453.26 333.289 453.386 332.766 453.386 332.15C453.386 331.534 453.265 331.011 453.022 330.582C452.779 330.153 452.462 329.835 452.07 329.63C451.678 329.415 451.253 329.308 450.796 329.308C450.329 329.308 449.9 329.415 449.508 329.63C449.125 329.835 448.817 330.153 448.584 330.582C448.351 331.011 448.234 331.534 448.234 332.15C448.234 332.775 448.346 333.303 448.57 333.732C448.803 334.161 449.111 334.483 449.494 334.698C449.877 334.903 450.297 335.006 450.754 335.006Z" fill="white"/>
<path d="M462.811 336.126C462.223 336.126 461.696 336.028 461.229 335.832C460.763 335.627 460.394 335.347 460.123 334.992C459.853 334.628 459.703 334.213 459.675 333.746H460.991C461.029 334.129 461.206 334.441 461.523 334.684C461.85 334.927 462.275 335.048 462.797 335.048C463.283 335.048 463.665 334.941 463.945 334.726C464.225 334.511 464.365 334.241 464.365 333.914C464.365 333.578 464.216 333.331 463.917 333.172C463.619 333.004 463.157 332.841 462.531 332.682C461.962 332.533 461.495 332.383 461.131 332.234C460.777 332.075 460.469 331.847 460.207 331.548C459.955 331.24 459.829 330.839 459.829 330.344C459.829 329.952 459.946 329.593 460.179 329.266C460.413 328.939 460.744 328.683 461.173 328.496C461.603 328.3 462.093 328.202 462.643 328.202C463.493 328.202 464.179 328.417 464.701 328.846C465.224 329.275 465.504 329.863 465.541 330.61H464.267C464.239 330.209 464.076 329.887 463.777 329.644C463.488 329.401 463.096 329.28 462.601 329.28C462.144 329.28 461.78 329.378 461.509 329.574C461.239 329.77 461.103 330.027 461.103 330.344C461.103 330.596 461.183 330.806 461.341 330.974C461.509 331.133 461.715 331.263 461.957 331.366C462.209 331.459 462.555 331.567 462.993 331.688C463.544 331.837 463.992 331.987 464.337 332.136C464.683 332.276 464.977 332.491 465.219 332.78C465.471 333.069 465.602 333.447 465.611 333.914C465.611 334.334 465.495 334.712 465.261 335.048C465.028 335.384 464.697 335.65 464.267 335.846C463.847 336.033 463.362 336.126 462.811 336.126Z" fill="white"/>
<path d="M474.41 331.87C474.41 332.113 474.396 332.369 474.368 332.64H468.236C468.282 333.396 468.539 333.989 469.006 334.418C469.482 334.838 470.056 335.048 470.728 335.048C471.278 335.048 471.736 334.922 472.1 334.67C472.473 334.409 472.734 334.063 472.884 333.634H474.256C474.05 334.371 473.64 334.973 473.024 335.44C472.408 335.897 471.642 336.126 470.728 336.126C470 336.126 469.346 335.963 468.768 335.636C468.198 335.309 467.75 334.847 467.424 334.25C467.097 333.643 466.934 332.943 466.934 332.15C466.934 331.357 467.092 330.661 467.41 330.064C467.727 329.467 468.17 329.009 468.74 328.692C469.318 328.365 469.981 328.202 470.728 328.202C471.456 328.202 472.1 328.361 472.66 328.678C473.22 328.995 473.649 329.434 473.948 329.994C474.256 330.545 474.41 331.17 474.41 331.87ZM473.094 331.604C473.094 331.119 472.986 330.703 472.772 330.358C472.557 330.003 472.263 329.737 471.89 329.56C471.526 329.373 471.12 329.28 470.672 329.28C470.028 329.28 469.477 329.485 469.02 329.896C468.572 330.307 468.315 330.876 468.25 331.604H473.094Z" fill="white"/>
<path d="M483.091 331.87C483.091 332.113 483.077 332.369 483.049 332.64H476.917C476.964 333.396 477.221 333.989 477.687 334.418C478.163 334.838 478.737 335.048 479.409 335.048C479.96 335.048 480.417 334.922 480.781 334.67C481.155 334.409 481.416 334.063 481.565 333.634H482.937C482.732 334.371 482.321 334.973 481.705 335.44C481.089 335.897 480.324 336.126 479.409 336.126C478.681 336.126 478.028 335.963 477.449 335.636C476.88 335.309 476.432 334.847 476.105 334.25C475.779 333.643 475.615 332.943 475.615 332.15C475.615 331.357 475.774 330.661 476.091 330.064C476.409 329.467 476.852 329.009 477.421 328.692C478 328.365 478.663 328.202 479.409 328.202C480.137 328.202 480.781 328.361 481.341 328.678C481.901 328.995 482.331 329.434 482.629 329.994C482.937 330.545 483.091 331.17 483.091 331.87ZM481.775 331.604C481.775 331.119 481.668 330.703 481.453 330.358C481.239 330.003 480.945 329.737 480.571 329.56C480.207 329.373 479.801 329.28 479.353 329.28C478.709 329.28 478.159 329.485 477.701 329.896C477.253 330.307 476.997 330.876 476.931 331.604H481.775Z" fill="white"/>
<path d="M495.114 328.328L490.494 339.612H489.178L490.69 335.916L487.596 328.328H489.01L491.418 334.544L493.798 328.328H495.114Z" fill="white"/>
<path d="M499.74 336.126C499.022 336.126 498.368 335.963 497.78 335.636C497.202 335.309 496.744 334.847 496.408 334.25C496.082 333.643 495.918 332.943 495.918 332.15C495.918 331.366 496.086 330.675 496.422 330.078C496.768 329.471 497.234 329.009 497.822 328.692C498.41 328.365 499.068 328.202 499.796 328.202C500.524 328.202 501.182 328.365 501.77 328.692C502.358 329.009 502.82 329.467 503.156 330.064C503.502 330.661 503.674 331.357 503.674 332.15C503.674 332.943 503.497 333.643 503.142 334.25C502.797 334.847 502.326 335.309 501.728 335.636C501.131 335.963 500.468 336.126 499.74 336.126ZM499.74 335.006C500.198 335.006 500.627 334.899 501.028 334.684C501.43 334.469 501.752 334.147 501.994 333.718C502.246 333.289 502.372 332.766 502.372 332.15C502.372 331.534 502.251 331.011 502.008 330.582C501.766 330.153 501.448 329.835 501.056 329.63C500.664 329.415 500.24 329.308 499.782 329.308C499.316 329.308 498.886 329.415 498.494 329.63C498.112 329.835 497.804 330.153 497.57 330.582C497.337 331.011 497.22 331.534 497.22 332.15C497.22 332.775 497.332 333.303 497.556 333.732C497.79 334.161 498.098 334.483 498.48 334.698C498.863 334.903 499.283 335.006 499.74 335.006Z" fill="white"/>
<path d="M512.153 328.328V336H510.879V334.866C510.637 335.258 510.296 335.566 509.857 335.79C509.428 336.005 508.952 336.112 508.429 336.112C507.832 336.112 507.295 335.991 506.819 335.748C506.343 335.496 505.965 335.123 505.685 334.628C505.415 334.133 505.279 333.531 505.279 332.822V328.328H506.539V332.654C506.539 333.41 506.731 333.993 507.113 334.404C507.496 334.805 508.019 335.006 508.681 335.006C509.363 335.006 509.899 334.796 510.291 334.376C510.683 333.956 510.879 333.345 510.879 332.542V328.328H512.153Z" fill="white"/>
<path d="M519.311 329.756C519.572 329.299 519.955 328.925 520.459 328.636C520.963 328.347 521.537 328.202 522.181 328.202C522.871 328.202 523.492 328.365 524.043 328.692C524.593 329.019 525.027 329.481 525.345 330.078C525.662 330.666 525.821 331.352 525.821 332.136C525.821 332.911 525.662 333.601 525.345 334.208C525.027 334.815 524.589 335.286 524.029 335.622C523.478 335.958 522.862 336.126 522.181 336.126C521.518 336.126 520.935 335.981 520.431 335.692C519.936 335.403 519.563 335.034 519.311 334.586V336H518.037V325.64H519.311V329.756ZM524.519 332.136C524.519 331.557 524.402 331.053 524.169 330.624C523.935 330.195 523.618 329.868 523.217 329.644C522.825 329.42 522.391 329.308 521.915 329.308C521.448 329.308 521.014 329.425 520.613 329.658C520.221 329.882 519.903 330.213 519.661 330.652C519.427 331.081 519.311 331.581 519.311 332.15C519.311 332.729 519.427 333.237 519.661 333.676C519.903 334.105 520.221 334.437 520.613 334.67C521.014 334.894 521.448 335.006 521.915 335.006C522.391 335.006 522.825 334.894 523.217 334.67C523.618 334.437 523.935 334.105 524.169 333.676C524.402 333.237 524.519 332.724 524.519 332.136Z" fill="white"/>
<path fill-rule="evenodd" clip-rule="evenodd" d="M527.498 330.078C527.18 330.666 527.022 331.352 527.022 332.136C527.022 332.911 527.18 333.601 527.498 334.208C527.815 334.815 528.249 335.286 528.8 335.622C529.119 335.817 529.46 335.955 529.822 336.037L530.04 334.864C529.892 334.813 529.749 334.749 529.612 334.67C529.22 334.437 528.907 334.105 528.674 333.676C528.44 333.237 528.324 332.724 528.324 332.136C528.324 331.557 528.44 331.053 528.674 330.624C528.907 330.195 529.22 329.868 529.612 329.644C530.004 329.42 530.438 329.308 530.914 329.308C530.977 329.308 531.039 329.31 531.101 329.314L531.261 328.244C531.069 328.216 530.87 328.202 530.662 328.202C529.98 328.202 529.36 328.365 528.8 328.692C528.249 329.019 527.815 329.481 527.498 330.078Z" fill="white"/>
</g>
<g filter="url(#filter2_i_2_265)">
<path d="M163.062 242.508C140.385 315.492 70.0999 319.275 0.824625 294.759L115.197 0.142456L386.592 105.5L386.086 105.501C270.495 105.7 205.534 105.813 163.062 242.508Z" fill="url(#paint4_linear_2_265)"/>
</g>
<defs>
<filter id="filter0_d_2_265" x="280.258" y="196.612" width="405.781" height="158.168" filterUnits="userSpaceOnUse" color-interpolation-filters="sRGB">
<feFlood flood-opacity="0" result="BackgroundImageFix"/>
<feColorMatrix in="SourceAlpha" type="matrix" values="0 0 0 0 0 0 0 0 0 0 0 0 0 0 0 0 0 0 127 0" result="hardAlpha"/>
<feOffset dx="5" dy="5"/>
<feGaussianBlur stdDeviation="5"/>
<feComposite in2="hardAlpha" operator="out"/>
<feColorMatrix type="matrix" values="0 0 0 0 0 0 0 0 0 0 0 0 0 0 0 0 0 0 0.25 0"/>
<feBlend mode="normal" in2="BackgroundImageFix" result="effect1_dropShadow_2_265"/>
<feBlend mode="normal" in="SourceGraphic" in2="effect1_dropShadow_2_265" result="shape"/>
</filter>
<filter id="filter1_d_2_265" x="280.258" y="196.612" width="296.68" height="158.168" filterUnits="userSpaceOnUse" color-interpolation-filters="sRGB">
<feFlood flood-opacity="0" result="BackgroundImageFix"/>
<feColorMatrix in="SourceAlpha" type="matrix" values="0 0 0 0 0 0 0 0 0 0 0 0 0 0 0 0 0 0 127 0" result="hardAlpha"/>
<feOffset dx="5" dy="5"/>
<feGaussianBlur stdDeviation="5"/>
<feComposite in2="hardAlpha" operator="out"/>
<feColorMatrix type="matrix" values="0 0 0 0 0 0 0 0 0 0 0 0 0 0 0 0 0 0 0.25 0"/>
<feBlend mode="normal" in2="BackgroundImageFix" result="effect1_dropShadow_2_265"/>
<feBlend mode="normal" in="SourceGraphic" in2="effect1_dropShadow_2_265" result="shape"/>
</filter>
<filter id="filter2_i_2_265" x="-4.17529" y="-4.85754" width="390.768" height="313.206" filterUnits="userSpaceOnUse" color-interpolation-filters="sRGB">
<feFlood flood-opacity="0" result="BackgroundImageFix"/>
<feBlend mode="normal" in="SourceGraphic" in2="BackgroundImageFix" result="shape"/>
<feColorMatrix in="SourceAlpha" type="matrix" values="0 0 0 0 0 0 0 0 0 0 0 0 0 0 0 0 0 0 127 0" result="hardAlpha"/>
<feOffset dx="-5" dy="-5"/>
<feGaussianBlur stdDeviation="10"/>
<feComposite in2="hardAlpha" operator="arithmetic" k2="-1" k3="1"/>
<feColorMatrix type="matrix" values="0 0 0 0 1 0 0 0 0 1 0 0 0 0 1 0 0 0 0.5 0"/>
<feBlend mode="normal" in2="shape" result="effect1_innerShadow_2_265"/>
</filter>
<linearGradient id="paint0_linear_2_265" x1="318.75" y1="105.5" x2="318.75" y2="449.439" gradientUnits="userSpaceOnUse">
<stop stop-color="#51FFD5"/>
<stop offset="1" stop-color="#6AC7A6"/>
</linearGradient>
<linearGradient id="paint1_linear_2_265" x1="318.75" y1="105.5" x2="405.478" y2="478.55" gradientUnits="userSpaceOnUse">
<stop stop-color="#62D6BA"/>
<stop offset="0.455381" stop-color="#51FFD5"/>
</linearGradient>
<linearGradient id="paint2_linear_2_265" x1="318.75" y1="105.5" x2="86.7086" y2="357.876" gradientUnits="userSpaceOnUse">
<stop stop-color="#FDEFCC"/>
<stop offset="1" stop-color="#FFCC4E"/>
</linearGradient>
<linearGradient id="paint3_linear_2_265" x1="318.75" y1="105.5" x2="179.967" y2="190.958" gradientUnits="userSpaceOnUse">
<stop stop-color="#FFCA63"/>
<stop offset="1" stop-color="#FDEFCC"/>
</linearGradient>
<linearGradient id="paint4_linear_2_265" x1="250.894" y1="52.8212" x2="136.522" y2="347.438" gradientUnits="userSpaceOnUse">
<stop offset="0.349895" stop-color="#A678F2"/>
<stop offset="0.802251" stop-color="#BA4DFD" stop-opacity="0.5"/>
</linearGradient>
</defs>
</svg>
