<svg width="160" height="279" viewBox="0 0 160 279" fill="none" xmlns="http://www.w3.org/2000/svg">
<path d="M43.3666 40.2903L45.3882 37.4921L47.0202 38.6711L55.863 26.4311L54.2216 25.2453L45.6677 37.0855L45.2573 36.789L53.8115 24.9485L52.1701 23.7627L43.3274 36.0026L44.9779 37.1956L44.1115 38.3948L39.1951 34.843L40.0615 33.6438L41.6935 34.8228L50.5361 22.583L48.8947 21.3972L40.3409 33.2372L39.9306 32.9408L48.4846 21.1004L46.8432 19.9146L38.0006 32.1545L39.6511 33.3473L38.7848 34.5466L36.5326 32.9195L37.5641 31.4918L29.969 26.0048L30.9351 24.6675L33.9842 26.8703L34.8235 25.7086L27.5016 20.419L26.6623 21.5807L29.7114 23.7834L28.7453 25.1207L21.1502 19.6337L20.1188 21.0614L17.8666 19.4344L18.733 18.2352L20.365 19.4142L20.384 19.4274L29.2266 7.18756L27.5852 6.00175L19.0312 17.8421L18.6209 17.5457L27.1747 5.70561L25.5333 4.5198L16.6907 16.7597L18.3227 17.9387L17.4563 19.1379L12.54 15.5861L13.4063 14.3869L15.0383 15.566L15.0574 15.579L23.9001 3.33914L22.2587 2.15333L13.7045 13.9939L13.2942 13.6974L21.8481 1.8572L20.2067 0.671387L11.3639 12.9114L12.996 14.0905L10.9744 16.8887L9.34239 15.7096L9.3231 15.6969L0.480469 27.9367L2.12185 29.1225L10.6762 17.2817L11.0865 17.5782L2.53241 29.4187L4.1738 30.6045L13.0168 18.3642L11.3847 17.1851L12.2511 15.9859L17.1675 19.5377L16.3008 20.7374L14.6688 19.5583L14.6497 19.5453L5.80706 31.7852L7.44845 32.971L16.0026 21.1304L16.4129 21.4269L7.85902 33.2671L9.50041 34.4529L18.3432 22.2129L16.7111 21.0338L17.5778 19.8342L19.8299 21.4613L18.7982 22.8894L26.3932 28.3764L25.9957 28.9266L20.8293 25.1941L19.3918 27.1839L23.51 30.1592L21.7163 32.6421L22.7644 33.3993L22.0684 34.3627L19.0193 32.16L18.1801 33.3217L21.2291 35.5244L21.0511 35.7709L18.3125 33.7923L17.4732 34.954L24.1743 39.7952L25.0136 38.6335L22.2749 36.655L22.4529 36.4085L25.502 38.6113L26.3412 37.4496L23.2922 35.2468L23.9882 34.2834L25.0364 35.0406L26.8301 32.5577L30.9484 35.5329L32.3859 33.5431L27.2195 29.8107L27.617 29.2605L35.212 34.7475L36.2438 33.3194L38.4959 34.9464L37.6293 36.146L35.9972 34.967L27.1545 47.207L28.7959 48.3928L37.3498 36.5526L37.7601 36.849L29.206 48.6896L30.8474 49.8754L39.69 37.6355L38.0396 36.4425L38.9062 35.2428L43.8226 38.7947L42.9563 39.9938L41.3243 38.8148L32.4813 51.0551L34.1227 52.2409L42.6768 40.4004L43.0872 40.6969L34.5328 52.5377L36.1742 53.7235L45.0168 41.4836L43.3666 40.2903ZM54.3431 25.9415L55.1638 26.5345L46.8988 37.9747L46.0781 37.3818L54.3431 25.9415ZM52.2916 24.459L53.1123 25.0519L44.8473 36.4921L44.0266 35.8992L52.2916 24.459ZM49.0162 22.0934L49.8369 22.6863L41.572 34.1266L40.7513 33.5337L49.0162 22.0934ZM46.9647 20.6109L47.7854 21.2038L39.5205 32.644L38.6998 32.0511L46.9647 20.6109ZM27.7068 6.69804L28.5274 7.29095L20.2625 18.7312L19.4418 18.1383L27.7068 6.69804ZM17.3899 16.6563L25.6548 5.21609L26.4755 5.80899L18.2106 17.2492L17.3899 16.6563ZM20.3282 1.36766L21.1489 1.96056L12.8839 13.4008L12.0632 12.8079L20.3282 1.36766ZM22.3802 2.8496L23.2008 3.44251L14.9359 14.8828L14.1152 14.2899L22.3802 2.8496ZM2.00036 28.4263L1.17967 27.8334L9.4446 16.3931L10.2653 16.986L2.00036 28.4263ZM4.05232 29.9082L3.23162 29.3153L11.4966 17.8751L12.3173 18.468L4.05232 29.9082ZM9.3789 33.7566L8.55821 33.1637L16.8232 21.7235L17.6439 22.3164L9.3789 33.7566ZM7.32694 32.2747L6.50625 31.6818L14.7712 20.2415L15.5919 20.8344L7.32694 32.2747ZM27.6231 21.1153L34.1243 25.812L33.8627 26.1741L27.3615 21.4773L27.6231 21.1153ZM30.1217 24.0799L30.5248 24.3711L29.5587 25.7084L29.1556 25.4172L30.1217 24.0799ZM24.0528 39.0989L18.1724 34.8507L18.4339 34.4886L24.3144 38.7369L24.0528 39.0989ZM21.8645 36.3585L21.4615 36.0673L21.6395 35.8209L22.0426 36.1121L21.8645 36.3585ZM25.3805 37.915L18.8793 33.2183L19.1408 32.8562L25.642 37.553L25.3805 37.915ZM22.8818 34.9504L22.4787 34.6592L23.1748 33.6957L23.5779 33.9869L22.8818 34.9504ZM24.9149 34.3444L22.4155 32.5387L23.9204 30.4556L26.4198 32.2613L24.9149 34.3444ZM30.8269 34.8367L20.091 27.0806L20.9508 25.8904L31.6867 33.6465L30.8269 34.8367ZM26.8092 29.5142L26.4061 29.223L26.8036 28.6728L27.2066 28.964L26.8092 29.5142ZM35.0905 34.0512L19.4974 22.786L21.2717 20.33L36.8649 31.5952L35.0905 34.0512ZM28.6744 47.6965L27.8537 47.1036L36.1186 35.6634L36.9393 36.2563L28.6744 47.6965ZM30.7259 49.1791L29.9052 48.5862L38.1701 37.146L38.9908 37.7389L30.7259 49.1791ZM34.0012 51.5447L33.1805 50.9517L41.4455 39.5115L42.2662 40.1044L34.0012 51.5447ZM36.0527 53.0272L35.232 52.4343L43.497 40.9941L44.3177 41.587L36.0527 53.0272Z" fill="#1C1C1C"/>
<path d="M20.3282 1.36766L21.1489 1.96056L12.8839 13.4008L12.0632 12.8079L20.3282 1.36766Z" fill="#1C1C1C"/>
<path d="M4.05232 29.9082L3.23162 29.3153L11.4966 17.8751L12.3173 18.468L4.05232 29.9082Z" fill="#1C1C1C"/>
<path d="M17.3899 16.6563L25.6548 5.21609L26.4755 5.80899L18.2106 17.2492L17.3899 16.6563Z" fill="#1C1C1C"/>
<path d="M9.3789 33.7566L8.55821 33.1637L16.8232 21.7235L17.6439 22.3164L9.3789 33.7566Z" fill="#1C1C1C"/>
<path d="M46.9647 20.6109L47.7854 21.2038L39.5205 32.644L38.6998 32.0511L46.9647 20.6109Z" fill="#1C1C1C"/>
<path d="M30.7259 49.1791L29.9052 48.5862L38.1701 37.146L38.9908 37.7389L30.7259 49.1791Z" fill="#1C1C1C"/>
<path d="M36.0527 53.0272L35.232 52.4343L43.497 40.9941L44.3177 41.587L36.0527 53.0272Z" fill="#1C1C1C"/>
<path d="M52.2916 24.459L53.1123 25.0519L44.8473 36.4921L44.0266 35.8992L52.2916 24.459Z" fill="#1C1C1C"/>
<path d="M35.0905 34.0512L19.4974 22.786L21.2717 20.33L36.8649 31.5952L35.0905 34.0512Z" fill="#1C1C1C"/>
<path d="M30.8269 34.8367L20.091 27.0806L20.9508 25.8904L31.6867 33.6465L30.8269 34.8367Z" fill="#1C1C1C"/>
<path d="M24.9149 34.3444L22.4155 32.5387L23.9204 30.4556L26.4198 32.2613L24.9149 34.3444Z" fill="url(#paint0_radial_2_267)"/>
<path d="M25.3805 37.915L18.8793 33.2183L19.1408 32.8562L25.642 37.553L25.3805 37.915Z" fill="url(#paint1_radial_2_267)"/>
<path d="M24.0528 39.0989L18.1724 34.8507L18.4339 34.4886L24.3144 38.7369L24.0528 39.0989Z" fill="url(#paint2_radial_2_267)"/>
<path d="M27.6231 21.1153L34.1243 25.812L33.8627 26.1741L27.3615 21.4773L27.6231 21.1153Z" fill="url(#paint3_radial_2_267)"/>
<path d="M87.2819 237.259C96.7099 239.079 104.936 230.845 103.116 221.422C103.013 220.882 102.59 220.462 102.049 220.356C92.6236 218.535 84.3957 226.764 86.2129 236.19C86.3187 236.741 86.7586 237.158 87.2819 237.259ZM100.616 222.859C101.267 229 96.713 234.395 90.5806 234.795L95.6163 229.759C96.1424 229.233 96.1424 228.384 95.6163 227.858C95.0902 227.332 94.2412 227.332 93.715 227.858L88.6794 232.894C89.0802 226.756 94.4805 222.207 100.616 222.859Z" fill="url(#paint4_radial_2_267)"/>
<path d="M141.542 249.32L132.13 248.466C131.403 248.399 130.727 248.037 130.273 247.467L121.799 236.878C120.772 235.594 119.241 234.86 117.599 234.86H110.342C111.068 232.981 111.469 230.94 111.469 228.808C111.469 219.541 103.928 212 94.6611 212C91.9415 212 89.2385 212.665 86.8472 213.924C86.1903 214.269 85.937 215.082 86.2849 215.738C86.6301 216.395 87.4429 216.649 88.0999 216.301C90.1403 215.232 92.3477 214.689 94.6665 214.689C102.453 214.689 108.785 221.022 108.785 228.807C108.785 236.594 102.452 242.926 94.6665 242.926C86.8804 242.926 80.5481 236.593 80.5481 228.807C80.5481 225.281 81.8564 221.901 84.2337 219.295C84.7348 218.747 84.6958 217.895 84.1474 217.397C83.599 216.896 82.7473 216.935 82.2489 217.483C76.5368 223.744 76.3615 233.311 81.9427 239.775C77.8535 250.623 78.0817 249.999 78.0484 250.119C77.9231 250.581 77.8591 251.057 77.8591 251.533V263.094C77.8591 266.059 80.2725 268.472 83.2372 268.472H84.6958C85.3389 272.283 88.6598 275.195 92.6487 275.195C96.6376 275.195 99.9588 272.283 100.602 268.472H109.457C110.2 268.472 110.801 267.871 110.801 267.128C110.801 266.384 110.2 265.783 109.457 265.783H100.602C99.9585 261.972 96.6376 259.061 92.6487 259.061C88.6598 259.061 85.3386 261.972 84.6958 265.783H83.2372C81.7535 265.783 80.5482 264.578 80.5482 263.094V251.533C80.5482 251.316 80.576 251.096 80.6289 250.879L84.0445 241.821C84.6402 242.308 85.2693 242.754 85.9262 243.157V249.649C85.9262 250.392 86.5275 250.993 87.2707 250.993H104.749C105.492 250.993 106.094 250.392 106.094 249.649C106.094 247.664 106.096 241.242 106.091 241.119C107.221 240.07 108.207 238.867 109.017 237.545H117.602C118.423 237.545 119.188 237.913 119.703 238.556L121.045 240.234H111.472C110.728 240.234 110.127 240.836 110.127 241.579V249.646C110.127 250.389 110.728 250.99 111.472 250.99H131.029C131.781 251.185 131.826 251.113 137.179 251.622C136.224 255.692 139.589 259.477 143.74 259.021L143.742 263.094C143.742 264.577 142.537 265.783 141.053 265.783H139.595C138.952 261.972 135.631 259.06 131.642 259.06C127.653 259.06 124.332 261.972 123.689 265.783H114.834C114.091 265.783 113.49 266.384 113.49 267.127C113.49 267.87 114.091 268.472 114.834 268.472H123.689C124.332 272.283 127.653 275.194 131.642 275.194C135.631 275.194 138.952 272.283 139.595 268.472H141.053C144.018 268.472 146.432 266.058 146.432 263.094V254.676C146.432 251.876 144.331 249.574 141.542 249.32ZM92.6494 261.749C95.614 261.749 98.0275 264.163 98.0275 267.127C98.0275 270.092 95.614 272.505 92.6494 272.505C89.6847 272.505 87.2713 270.092 87.2713 267.127C87.2713 264.16 89.6847 261.749 92.6494 261.749ZM103.406 248.304H88.6159V244.488C93.3204 246.311 98.8178 245.963 103.406 243.157V248.304ZM112.82 242.923H123.2L127.504 248.301L112.82 248.304L112.82 242.923ZM131.643 272.506C128.679 272.506 126.265 270.092 126.265 267.128C126.265 264.163 128.679 261.75 131.643 261.75C134.608 261.75 137.021 264.163 137.021 267.128C137.021 270.092 134.608 272.506 131.643 272.506ZM143.744 256.302C141.163 256.825 139.028 254.32 139.908 251.871L141.297 251.996C142.691 252.121 143.741 253.273 143.741 254.674L143.744 256.302Z" fill="#1C1C1C"/>
<path d="M114.164 255.027C114.164 254.284 113.563 253.683 112.82 253.683H111.475C110.732 253.683 110.131 254.284 110.131 255.027C110.131 255.77 110.732 256.372 111.475 256.372H112.82C113.56 256.372 114.164 255.768 114.164 255.027Z" fill="#1C1C1C"/>
<path d="M2.68945 277.833H70.8139" stroke="#1C1C1C" stroke-linecap="round"/>
<path d="M75.1665 277.833H90.1665" stroke="#1C1C1C" stroke-linecap="round"/>
<path d="M99.6914 277.833H107.6" stroke="#1C1C1C" stroke-linecap="round"/>
<path d="M118.846 277.833H138.745" stroke="#1C1C1C" stroke-linecap="round"/>
<path d="M48.6314 117.648C47.8045 117.82 47.2396 118.566 47.2988 119.406C47.3582 120.249 48.0222 120.909 48.8648 120.96L57.9949 121.539C58.0409 121.543 58.0828 121.509 58.0893 121.463L58.3943 119.426C58.3972 119.408 58.4032 119.395 58.416 119.38L62.2142 115.006C62.2705 114.941 62.2123 114.841 62.1291 114.86L48.6314 117.648Z" fill="url(#paint5_radial_2_267)"/>
<path d="M64.4388 99.4439L63.5709 113.196C63.5659 113.283 63.6714 113.325 63.7277 113.26L68.8857 107.32C68.9191 107.282 69.0117 107.267 69.1082 107.251C69.2521 107.228 69.4047 107.203 69.3823 107.097L67.7519 99.2092C67.5801 98.3823 66.8342 97.8173 65.9939 97.8766C65.1522 97.9373 64.4929 98.6012 64.4388 99.4439Z" fill="url(#paint6_radial_2_267)"/>
<path d="M72.3956 138.283L73.2648 124.529C73.2698 124.443 73.1643 124.401 73.108 124.466L69.3083 128.838C69.2968 128.852 69.2836 128.861 69.266 128.866L67.2916 129.454C67.2468 129.467 67.2196 129.513 67.2297 129.558L69.0806 138.517C69.2525 139.344 69.9983 139.909 70.8387 139.85C71.6818 139.79 72.3415 139.126 72.3956 138.283Z" fill="url(#paint7_radial_2_267)"/>
<path fill-rule="evenodd" clip-rule="evenodd" d="M41.5142 119.815C41.2679 116.322 43.9007 113.29 47.3947 113.043C49.5025 112.895 51.4405 113.794 52.7012 115.297C52.7436 115.349 52.716 115.429 52.6505 115.442L51.5711 115.666C51.552 115.67 51.5338 115.667 51.5167 115.66L49.8564 114.909C46.5186 113.4 42.6975 115.992 42.9596 119.715C43.2217 123.437 47.3702 125.467 50.4622 123.506L52.0008 122.529C52.018 122.518 52.0344 122.514 52.0538 122.516L53.1539 122.586C53.2221 122.591 53.2606 122.666 53.2245 122.723C52.1871 124.388 50.3929 125.549 48.2865 125.699C44.7926 125.942 41.7603 123.309 41.5142 119.815ZM82.8371 108.456C82.8633 108.828 82.5841 109.15 82.2134 109.175C81.8415 109.201 81.52 108.922 81.4953 108.551C81.3244 106.126 79.2199 104.299 76.7954 104.47C76.4234 104.496 76.1019 104.217 76.0772 103.846C76.051 103.474 76.3301 103.153 76.7008 103.128C79.8667 102.905 82.6126 105.289 82.8371 108.456ZM86.7165 108.183C86.3424 102.874 81.7355 98.8733 76.4242 99.2459C76.0523 99.2721 75.7731 99.5936 75.8006 99.9641C75.8268 100.336 76.1483 100.615 76.5188 100.588C81.0871 100.266 85.0514 103.708 85.3731 108.276C85.3993 108.648 85.7208 108.927 86.0912 108.9C86.4634 108.876 86.744 108.554 86.7165 108.183ZM60.8969 129.949L68.506 127.686C68.5236 127.681 68.5355 127.673 68.5483 127.658L78.4765 116.225C78.4893 116.21 78.4964 116.193 78.4978 116.174L79.0204 110.269C79.0225 110.24 79.0123 110.213 78.9902 110.194L75.5157 107.177C75.4936 107.158 75.4655 107.151 75.4368 107.157L69.6641 108.503C69.6451 108.507 69.6291 108.517 69.6163 108.531L59.6896 119.966C59.678 119.979 59.6708 119.994 59.6679 120.012L58.4945 127.863C58.4899 127.895 58.5015 127.924 58.5251 127.944L60.8125 129.93C60.8375 129.952 60.8684 129.958 60.8969 129.949ZM92.5329 118.107C92.3498 115.509 89.5585 114.053 87.3542 115.209C87.2741 115.251 87.3006 115.372 87.391 115.378L88.053 115.42C89.5618 115.514 90.7708 116.717 90.877 118.224C90.9832 119.731 89.9548 121.091 88.4742 121.396L87.8246 121.531C87.7359 121.549 87.728 121.672 87.8119 121.703C90.1565 122.539 92.716 120.706 92.5329 118.107ZM95.32 117.912C95.0738 114.419 92.0419 111.786 88.5478 112.032C86.44 112.18 84.6473 113.342 83.6099 115.008C83.5752 115.065 83.6137 115.14 83.6804 115.144L84.7805 115.214C84.8 115.216 84.8176 115.21 84.8335 115.201L86.3721 114.225C89.4653 112.262 93.6122 114.293 93.8747 118.015C94.1371 121.738 90.313 124.331 86.9779 122.821L85.3176 122.07C85.299 122.062 85.2823 122.06 85.2632 122.064L84.1839 122.288C84.1171 122.303 84.0894 122.382 84.1332 122.433C85.3938 123.937 87.333 124.834 89.4396 124.687C92.9332 124.438 95.5662 121.406 95.32 117.912ZM65.7841 94.88C68.3824 94.6969 70.2158 97.2564 69.38 99.6011C69.35 99.6863 69.2261 99.677 69.2074 99.5883L69.073 98.9388C68.768 97.4581 67.4079 96.4297 65.9008 96.5359C64.3936 96.6422 63.1912 97.8511 63.0968 99.3599L63.0548 100.022C63.0487 100.112 62.9287 100.137 62.8858 100.059C61.7294 97.8544 63.1859 95.0631 65.7841 94.88ZM65.5863 92.0931C69.08 91.8469 72.112 94.4797 72.3585 97.9737C72.5071 100.082 71.608 102.019 70.1046 103.28C70.0522 103.323 69.9727 103.295 69.9598 103.229L69.7356 102.15C69.7315 102.131 69.7344 102.113 69.7415 102.096L70.4925 100.435C72.0017 97.0976 69.4095 93.2765 65.6868 93.5386C61.9644 93.8009 59.9337 97.9507 61.8958 101.041L62.8723 102.58C62.8832 102.597 62.8872 102.613 62.8858 102.633L62.8151 103.733C62.8102 103.801 62.7354 103.84 62.6789 103.803C61.0136 102.766 59.8529 100.972 59.703 98.8655C59.4596 95.3716 62.0927 92.3393 65.5863 92.0931ZM71.0516 142.846C68.4533 143.029 66.6199 140.469 67.4557 138.125C67.4857 138.04 67.6095 138.049 67.6282 138.137L67.7626 138.787C68.0677 140.268 69.4278 141.296 70.9349 141.19C72.4421 141.084 73.6445 139.875 73.7389 138.366L73.7808 137.704C73.7869 137.613 73.907 137.588 73.9499 137.667C75.105 139.873 73.6485 142.664 71.0516 142.846ZM71.2481 145.634C67.7544 145.88 64.7224 143.248 64.4759 139.754C64.3274 137.646 65.2264 135.708 66.7298 134.447C66.7822 134.405 66.8617 134.432 66.8746 134.498L67.1012 135.592C67.1053 135.611 67.1025 135.629 67.0954 135.647L66.349 137.296C64.8434 140.626 67.4313 144.441 71.1456 144.179C74.8599 143.918 76.8871 139.778 74.9293 136.691L73.9591 135.163C73.9482 135.146 73.9443 135.129 73.9457 135.11L74.0166 133.995C74.0215 133.926 74.0963 133.888 74.1528 133.924C75.8181 134.961 76.9788 136.756 77.1287 138.862C77.3749 142.356 74.7421 145.388 71.2481 145.634ZM44.3025 119.619C44.4856 122.217 47.2769 123.673 49.4812 122.517C49.5614 122.475 49.5348 122.354 49.4444 122.348L48.7824 122.306C47.2736 122.212 46.0646 121.009 45.9584 119.502C45.8522 117.995 46.8806 116.635 48.3613 116.33L49.0108 116.195C49.0995 116.177 49.1075 116.054 49.0236 116.023C46.6776 115.189 44.1181 117.022 44.3025 119.619Z" fill="#1C1C1C"/>
<path d="M88.2028 120.079L74.7066 122.869C74.622 122.886 74.5652 122.787 74.6216 122.723L79.7796 116.782C79.813 116.744 79.8148 116.65 79.8168 116.553C79.8197 116.407 79.8227 116.252 79.931 116.26L87.9693 116.768C88.8121 116.822 89.476 117.481 89.5353 118.321C89.5945 119.162 89.0296 119.908 88.2028 120.079Z" fill="url(#paint8_radial_2_267)"/>
<path d="M55.374 41.1817C72.8869 58.2873 101.08 -2.51778 128.719 3.38275C139.382 5.65912 147.284 12.2317 148.992 23.3261C156.44 71.6894 107.422 50.8763 93.4476 71.8383" stroke="#1C1C1C" stroke-linecap="round" stroke-dasharray="10 10"/>
<path d="M94.4363 135.13C105.23 134.708 160.15 128.968 158.524 148.205C156.593 171.052 109.888 173.204 94.6835 176.445C46.2347 186.77 -6.47249 225.986 64.2741 239.461" stroke="#1C1C1C" stroke-linecap="round" stroke-dasharray="10 10"/>
<defs>
<radialGradient id="paint0_radial_2_267" cx="0" cy="0" r="1" gradientUnits="userSpaceOnUse" gradientTransform="translate(11.5274 13.1207) rotate(49.7059) scale(53.2333 53.6568)">
<stop stop-color="#FFE271"/>
<stop offset="0.232364" stop-color="#FFBD3E"/>
<stop offset="0.514629" stop-color="#FF9101"/>
<stop offset="0.727745" stop-color="#FFAC27"/>
<stop offset="0.847509" stop-color="#FFBE3F"/>
<stop offset="1" stop-color="#FFD45E"/>
</radialGradient>
<radialGradient id="paint1_radial_2_267" cx="0" cy="0" r="1" gradientUnits="userSpaceOnUse" gradientTransform="translate(11.5274 13.1207) rotate(49.7059) scale(53.2333 53.6568)">
<stop stop-color="#FFE271"/>
<stop offset="0.232364" stop-color="#FFBD3E"/>
<stop offset="0.514629" stop-color="#FF9101"/>
<stop offset="0.727745" stop-color="#FFAC27"/>
<stop offset="0.847509" stop-color="#FFBE3F"/>
<stop offset="1" stop-color="#FFD45E"/>
</radialGradient>
<radialGradient id="paint2_radial_2_267" cx="0" cy="0" r="1" gradientUnits="userSpaceOnUse" gradientTransform="translate(11.5274 13.1207) rotate(49.7059) scale(53.2333 53.6568)">
<stop stop-color="#FFE271"/>
<stop offset="0.232364" stop-color="#FFBD3E"/>
<stop offset="0.514629" stop-color="#FF9101"/>
<stop offset="0.727745" stop-color="#FFAC27"/>
<stop offset="0.847509" stop-color="#FFBE3F"/>
<stop offset="1" stop-color="#FFD45E"/>
</radialGradient>
<radialGradient id="paint3_radial_2_267" cx="0" cy="0" r="1" gradientUnits="userSpaceOnUse" gradientTransform="translate(11.5274 13.1207) rotate(49.7059) scale(53.2333 53.6568)">
<stop stop-color="#FFE271"/>
<stop offset="0.232364" stop-color="#FFBD3E"/>
<stop offset="0.514629" stop-color="#FF9101"/>
<stop offset="0.727745" stop-color="#FFAC27"/>
<stop offset="0.847509" stop-color="#FFBE3F"/>
<stop offset="1" stop-color="#FFD45E"/>
</radialGradient>
<radialGradient id="paint4_radial_2_267" cx="0" cy="0" r="1" gradientUnits="userSpaceOnUse" gradientTransform="translate(112.145 243.597) rotate(90) scale(31.5974 34.2863)">
<stop stop-color="#FFF61F"/>
<stop offset="0.505" stop-color="#97FF12"/>
<stop offset="1" stop-color="#0EAD00"/>
</radialGradient>
<radialGradient id="paint5_radial_2_267" cx="0" cy="0" r="1" gradientUnits="userSpaceOnUse" gradientTransform="translate(71.5734 134.982) rotate(-88.1109) scale(42.4937 42.4924)">
<stop stop-color="#FFE271"/>
<stop offset="0.232364" stop-color="#FFBD3E"/>
<stop offset="0.514629" stop-color="#FF9101"/>
<stop offset="0.727745" stop-color="#FFAC27"/>
<stop offset="0.847509" stop-color="#FFBE3F"/>
<stop offset="1" stop-color="#FFD45E"/>
</radialGradient>
<radialGradient id="paint6_radial_2_267" cx="0" cy="0" r="1" gradientUnits="userSpaceOnUse" gradientTransform="translate(71.5734 134.982) rotate(-88.1109) scale(42.4937 42.4924)">
<stop stop-color="#FFE271"/>
<stop offset="0.232364" stop-color="#FFBD3E"/>
<stop offset="0.514629" stop-color="#FF9101"/>
<stop offset="0.727745" stop-color="#FFAC27"/>
<stop offset="0.847509" stop-color="#FFBE3F"/>
<stop offset="1" stop-color="#FFD45E"/>
</radialGradient>
<radialGradient id="paint7_radial_2_267" cx="0" cy="0" r="1" gradientUnits="userSpaceOnUse" gradientTransform="translate(71.5734 134.982) rotate(-88.1109) scale(42.4937 42.4924)">
<stop stop-color="#FFE271"/>
<stop offset="0.232364" stop-color="#FFBD3E"/>
<stop offset="0.514629" stop-color="#FF9101"/>
<stop offset="0.727745" stop-color="#FFAC27"/>
<stop offset="0.847509" stop-color="#FFBE3F"/>
<stop offset="1" stop-color="#FFD45E"/>
</radialGradient>
<radialGradient id="paint8_radial_2_267" cx="0" cy="0" r="1" gradientUnits="userSpaceOnUse" gradientTransform="translate(71.5734 134.982) rotate(-88.1109) scale(42.4937 42.4924)">
<stop stop-color="#FFE271"/>
<stop offset="0.232364" stop-color="#FFBD3E"/>
<stop offset="0.514629" stop-color="#FF9101"/>
<stop offset="0.727745" stop-color="#FFAC27"/>
<stop offset="0.847509" stop-color="#FFBE3F"/>
<stop offset="1" stop-color="#FFD45E"/>
</radialGradient>
</defs>
</svg>
